#!OML:ASF X:\für Bonn\!DataBase\2005_08_11_Bastian_Final\c3d\Bastian.ASF
:FULLY-SPECIFIED
:DEGREES
207
root -21.3605 17.4671 0.591155 154.753 -68.1707 -162.366
lowerback 2.82089 -3.00006 3.23332
upperback 6.68657 -4.68832 4.845
thorax 5.54692 -2.50838 3.12571
lowerneck -0.0442148 -5.48473 3.23608
upperneck 21.9703 -10.0502 4.39262
head 6.81974 -4.74279 0.232315
rclavicle -6.02318e-014 -2.62396e-014
rhumerus -25.8825 22.271 -86.7681
rradius 76.9832
rwrist -61.2182
rhand 0.532308 1.31378
rfingers 7.12502
rthumb 26.1001 -26.9127
lclavicle -6.02318e-014 -2.62396e-014
lhumerus -24.9646 -2.66779 90.8101
lradius 11.6641
lwrist 3.84163
lhand -9.79845 -6.80544
lfingers 7.12502
lthumb 16.1777 22.5395
rfemur -0.862757 -8.97459 22.2431
rtibia 36.3128
rfoot -14.3724 -13.0883
rtoes -7.39551
lfemur 1.39952 8.1242 -15.47
ltibia 27.1681
lfoot -15.6553 5.28336
ltoes 4.71606
208
root -21.3467 17.4646 0.600573 155.12 -67.6852 -162.745
lowerback 2.91134 -3.10651 3.51211
upperback 6.8156 -4.87528 5.03609
thorax 5.6402 -2.60614 3.16929
lowerneck -0.165379 -5.4022 3.27871
upperneck 22.0263 -9.9027 4.15579
head 6.84177 -4.68109 0.15344
rclavicle -1.25234e-014 1.43125e-014
rhumerus -26.2935 22.3105 -86.793
rradius 76.0526
rwrist -61.4837
rhand 0.846881 1.111
rfingers 7.12502
rthumb 26.4013 -27.0707
lclavicle -1.25234e-014 1.43125e-014
lhumerus -24.957 -2.13157 90.9753
lradius 11.5256
lwrist 3.79424
lhand -9.87176 -6.85659
lfingers 7.12502
lthumb 16.1071 22.494
rfemur -0.795527 -8.88046 22.2916
rtibia 36.1247
rfoot -14.4612 -13.1477
rtoes -7.75851
lfemur 1.3872 8.20823 -15.4823
ltibia 27.2254
lfoot -15.8357 5.6255
ltoes 5.01408
209
root -21.3323 17.4614 0.609779 155.453 -67.1943 -163.094
lowerback 3.03801 -3.22018 3.81094
upperback 6.93251 -5.06898 5.22039
thorax 5.69818 -2.70645 3.19781
lowerneck -0.209092 -5.31618 3.3365
upperneck 22.0352 -9.74003 3.90679
head 6.83402 -4.61562 0.0733098
rclavicle -1.53064e-014 -2.70347e-014
rhumerus -26.6932 22.3311 -86.7958
rradius 75.1107
rwrist -61.6298
rhand 1.28229 1.04634
rfingers 7.12502
rthumb 26.818 -27.0721
lclavicle -1.53064e-014 -2.70347e-014
lhumerus -24.994 -1.68201 91.1423
lradius 11.4288
lwrist 3.73866
lhand -9.90102 -6.85725
lfingers 7.12502
lthumb 16.079 22.4957
rfemur -0.728339 -8.77782 22.3508
rtibia 35.9254
rfoot -14.4498 -13.2038
rtoes -8.74127
lfemur 1.3727 8.29615 -15.4833
ltibia 27.2846
lfoot -16.0039 5.96215
ltoes 5.33878
210
root -21.3169 17.4582 0.619641 155.846 -66.7025 -163.51
lowerback 3.18485 -3.31948 4.12134
upperback 7.056 -5.23976 5.36863
thorax 5.74618 -2.7931 3.18463
lowerneck -0.235838 -5.24502 3.4361
upperneck 22.0106 -9.60344 3.69047
head 6.81335 -4.55847 -0.0034033
rclavicle -2.62396e-014 5.80451e-014
rhumerus -27.0498 22.3163 -86.7769
rradius 74.1989
rwrist -61.6903
rhand 1.84928 1.18567
rfingers 7.12502
rthumb 27.3604 -26.8484
lclavicle -2.62396e-014 5.80451e-014
lhumerus -25.027 -1.49318 91.3267
lradius 11.3505
lwrist 3.79208
lhand -9.89342 -6.92317
lfingers 7.12502
lthumb 16.0863 22.4291
rfemur -0.670746 -8.68349 22.3703
rtibia 35.7228
rfoot -14.4463 -13.1824
rtoes -9.54248
lfemur 1.3601 8.38352 -15.5259
ltibia 27.3398
lfoot -16.1723 6.35647
ltoes 5.28413
211
root -21.301 17.4555 0.630006 156.221 -66.1996 -163.908
lowerback 3.35495 -3.41263 4.44149
upperback 7.17726 -5.40089 5.5157
thorax 5.77731 -2.87493 3.16755
lowerneck -0.276827 -5.16755 3.55711
upperneck 22.0028 -9.46394 3.47725
head 6.80043 -4.49762 -0.0834495
rclavicle -1.53064e-014 -1.43125e-014
rhumerus -27.2713 22.2657 -86.7167
rradius 73.1515
rwrist -61.6738
rhand 2.53957 1.52872
rfingers 7.12502
rthumb 28.0205 -26.3993
lclavicle -1.53064e-014 -1.43125e-014
lhumerus -25.0901 -1.43896 91.5507
lradius 11.3073
lwrist 4.0096
lhand -9.92464 -7.00338
lfingers 7.12502
lthumb 16.0562 22.3514
rfemur -0.623543 -8.56292 22.4
rtibia 35.5181
rfoot -14.4563 -13.1541
rtoes -10.265
lfemur 1.34647 8.45872 -15.5641
ltibia 27.3922
lfoot -16.3505 6.72378
ltoes 5.63529
212
root -21.2835 17.4529 0.64083 156.537 -65.7039 -164.271
lowerback 3.58612 -3.51745 4.76601
upperback 7.3024 -5.57514 5.66767
thorax 5.77865 -2.96498 3.15834
lowerneck -0.27553 -5.0851 3.64015
upperneck 21.9436 -9.30945 3.28337
head 6.76622 -4.43268 -0.147621
rclavicle -3.29983e-014 -2.38542e-014
rhumerus -27.3794 22.2218 -86.6221
rradius 72.0505
rwrist -61.5953
rhand 3.17958 1.86689
rfingers 7.12502
rthumb 28.6321 -25.9595
lclavicle -3.29983e-014 -2.38542e-014
lhumerus -25.1561 -1.60297 91.8399
lradius 11.2913
lwrist 4.44563
lhand -9.90226 -7.11762
lfingers 7.12502
lthumb 16.0778 22.2354
rfemur -0.560754 -8.40662 22.4424
rtibia 35.3114
rfoot -14.5108 -13.1153
rtoes -10.6351
lfemur 1.35224 8.51368 -15.5989
ltibia 27.4386
lfoot -16.5162 7.11989
ltoes 5.85593
213
root -21.2658 17.4504 0.652726 156.89 -65.1861 -164.702
lowerback 3.86546 -3.61921 5.08148
upperback 7.43854 -5.7423 5.80933
thorax 5.76403 -3.0529 3.14799
lowerneck -0.289781 -4.99365 3.7305
upperneck 21.8894 -9.14003 3.07184
head 6.73551 -4.36049 -0.218446
rclavicle 3.04141e-014 5.40694e-014
rhumerus -27.4807 22.2206 -86.488
rradius 71.0376
rwrist -61.4861
rhand 3.79918 2.19461
rfingers 7.12502
rthumb 29.224 -25.5304
lclavicle 3.04141e-014 5.40694e-014
lhumerus -25.2245 -1.79662 92.1361
lradius 11.2818
lwrist 4.88756
lhand -9.90699 -7.26095
lfingers 7.12502
lthumb 16.0732 22.0924
rfemur -0.485152 -8.27564 22.4356
rtibia 35.1039
rfoot -14.519 -13.0034
rtoes -11.1464
lfemur 1.39169 8.57324 -15.6658
ltibia 27.4762
lfoot -16.7098 7.55797
ltoes 5.92356
214
root -21.2467 17.4475 0.66517 157.207 -64.6787 -165.095
lowerback 4.16951 -3.72822 5.38819
upperback 7.57982 -5.9198 5.96409
thorax 5.74399 -3.14855 3.15941
lowerneck -0.308131 -4.89508 3.81136
upperneck 21.8223 -8.95445 2.84669
head 6.70141 -4.28175 -0.290992
rclavicle 3.1408e-014 1.27222e-013
rhumerus -27.5217 22.2616 -86.3075
rradius 70.08
rwrist -61.3507
rhand 4.30049 2.49856
rfingers 7.12502
rthumb 29.7025 -25.1422
lclavicle 3.1408e-014 1.27222e-013
lhumerus -25.2786 -2.16525 92.5139
lradius 11.3004
lwrist 5.51943
lhand -9.92042 -7.39998
lfingers 7.12502
lthumb 16.0603 21.9544
rfemur -0.413784 -8.11343 22.4414
rtibia 34.8904
rfoot -14.5245 -12.8907
rtoes -11.4925
lfemur 1.42253 8.66474 -15.7156
ltibia 27.5111
lfoot -16.8621 7.94382
ltoes 6.08154
215
root -21.2263 17.4469 0.678126 157.552 -64.1641 -165.522
lowerback 4.51763 -3.82841 5.68905
upperback 7.70875 -6.07714 6.10646
thorax 5.68439 -3.23471 3.16678
lowerneck -0.27237 -4.80467 3.85881
upperneck 21.7247 -8.78302 2.66671
head 6.65223 -4.21113 -0.342143
rclavicle -9.70069e-014 9.70069e-014
rhumerus -27.5609 22.3406 -86.1102
rradius 69.2075
rwrist -61.2548
rhand 4.67967 2.77463
rfingers 7.12502
rthumb 30.0644 -24.801
lclavicle -9.70069e-014 9.70069e-014
lhumerus -25.3578 -2.63185 92.9028
lradius 11.346
lwrist 6.19677
lhand -9.88658 -7.5732
lfingers 7.12502
lthumb 16.0929 21.7786
rfemur -0.357563 -7.91183 22.4329
rtibia 34.6831
rfoot -14.4718 -12.7773
rtoes -11.7978
lfemur 1.45218 8.71296 -15.7974
ltibia 27.5367
lfoot -17.0273 8.40386
ltoes 6.21472
216
root -21.2049 17.4455 0.692527 157.881 -63.6408 -165.94
lowerback 4.90769 -3.92581 6.01144
upperback 7.84222 -6.22632 6.24356
thorax 5.60381 -3.31694 3.16202
lowerneck -0.212741 -4.71024 3.85327
upperneck 21.5764 -8.61139 2.56771
head 6.58885 -4.13922 -0.357327
rclavicle -1.27222e-014 -7.31528e-014
rhumerus -27.5461 22.5188 -85.8746
rradius 68.4018
rwrist -61.2583
rhand 4.89528 2.94982
rfingers 7.12502
rthumb 30.2701 -24.5882
lclavicle -1.27222e-014 -7.31528e-014
lhumerus -25.6069 -3.43161 93.4091
lradius 11.7296
lwrist 7.16418
lhand -9.85504 -7.62121
lfingers 7.12502
lthumb 16.1232 21.7281
rfemur -0.299716 -7.70525 22.4116
rtibia 34.4701
rfoot -14.3875 -12.6154
rtoes -11.9899
lfemur 1.48497 8.75833 -15.8855
ltibia 27.5631
lfoot -17.1762 8.86198
ltoes 6.28619
217
root -21.1819 17.4451 0.706824 158.194 -63.1196 -166.349
lowerback 5.32595 -4.02006 6.32136
upperback 7.98794 -6.37061 6.38447
thorax 5.52297 -3.39924 3.17199
lowerneck -0.191556 -4.62623 3.84896
upperneck 21.4312 -8.44484 2.42436
head 6.53108 -4.07074 -0.388389
rclavicle 1.90833e-014 1.11319e-013
rhumerus -27.4341 22.7121 -85.5992
rradius 67.6145
rwrist -61.2191
rhand 5.019 3.02181
rfingers 7.12502
rthumb 30.3881 -24.4945
lclavicle 1.90833e-014 1.11319e-013
lhumerus -25.8404 -4.25034 93.9256
lradius 12.1688
lwrist 8.08064
lhand -9.80415 -7.61274
lfingers 7.12502
lthumb 16.1722 21.7326
rfemur -0.250769 -7.49433 22.3888
rtibia 34.2677
rfoot -14.307 -12.441
rtoes -12.1317
lfemur 1.51492 8.83584 -15.9628
ltibia 27.5797
lfoot -17.3084 9.28394
ltoes 6.50066
218
root -21.1576 17.4466 0.722038 158.524 -62.5897 -166.749
lowerback 5.75286 -4.10091 6.63205
upperback 8.12604 -6.4945 6.53515
thorax 5.43076 -3.47275 3.19463
lowerneck -0.183674 -4.54062 3.81965
upperneck 21.2744 -8.27592 2.29878
head 6.47385 -4.00067 -0.409937
rclavicle -7.196e-014 8.5875e-014
rhumerus -27.2625 22.8962 -85.288
rradius 66.8329
rwrist -61.0534
rhand 5.07877 3.01424
rfingers 7.12502
rthumb 30.4451 -24.4915
lclavicle -7.196e-014 8.5875e-014
lhumerus -26.0588 -4.99584 94.429
lradius 12.6066
lwrist 8.81633
lhand -9.76415 -7.68241
lfingers 7.12502
lthumb 16.2108 21.6598
rfemur -0.243445 -7.24018 22.3756
rtibia 34.0671
rfoot -14.1984 -12.2949
rtoes -12.119
lfemur 1.50722 8.99824 -16.0293
ltibia 27.6
lfoot -17.3708 9.69823
ltoes 6.30842
219
root -21.1319 17.4487 0.73804 158.885 -62.0745 -167.182
lowerback 6.19254 -4.17969 6.93252
upperback 8.27373 -6.61184 6.66272
thorax 5.34045 -3.54288 3.20111
lowerneck -0.2032 -4.45442 3.86545
upperneck 21.1228 -8.10099 2.11872
head 6.41834 -3.92479 -0.46152
rclavicle 1.02175e-013 -3.97569e-014
rhumerus -27.02 23.0603 -84.9658
rradius 66.0894
rwrist -60.7695
rhand 5.07236 2.89166
rfingers 7.12502
rthumb 30.439 -24.6152
lclavicle 1.02175e-013 -3.97569e-014
lhumerus -26.2759 -5.80496 94.9435
lradius 13.0913
lwrist 9.55321
lhand -9.76254 -7.65894
lfingers 7.12502
lthumb 16.2123 21.6832
rfemur -0.261936 -7.00502 22.3312
rtibia 33.8768
rfoot -14.0491 -12.1499
rtoes -12.2279
lfemur 1.48572 9.35235 -16.0692
ltibia 27.6263
lfoot -17.3655 9.89812
ltoes 6.42308
220
root -21.1041 17.4529 0.754712 159.196 -61.5868 -167.537
lowerback 6.66164 -4.27202 7.2107
upperback 8.40424 -6.74617 6.83328
thorax 5.22475 -3.62736 3.27065
lowerneck -0.243026 -4.35282 3.88456
upperneck 20.9695 -7.89549 1.90602
head 6.36567 -3.83707 -0.518042
rclavicle 3.26007e-014 1.74931e-014
rhumerus -26.7529 23.2226 -84.5767
rradius 65.3944
rwrist -60.3937
rhand 5.05813 2.70227
rfingers 7.12502
rthumb 30.4254 -24.8071
lclavicle 3.26007e-014 1.74931e-014
lhumerus -26.4332 -6.3759 95.4051
lradius 13.5484
lwrist 9.97419
lhand -9.69777 -7.66772
lfingers 7.12502
lthumb 16.2747 21.6693
rfemur -0.318844 -6.79838 22.3137
rtibia 33.6898
rfoot -13.8875 -11.9946
rtoes -12.2886
lfemur 1.41404 9.68959 -16.0867
ltibia 27.6674
lfoot -17.3524 10.0994
ltoes 6.32929
221
root -21.0746 17.4569 0.771796 159.476 -61.0805 -167.883
lowerback 7.17729 -4.35073 7.48924
upperback 8.55022 -6.85877 6.99962
thorax 5.10066 -3.70294 3.34092
lowerneck -0.248856 -4.25556 3.93408
upperneck 20.7657 -7.69167 1.69739
head 6.29082 -3.74838 -0.576053
rclavicle -4.13472e-014 3.97569e-014
rhumerus -26.4679 23.3315 -84.1678
rradius 64.7501
rwrist -59.9149
rhand 5.10631 2.57459
rfingers 7.12502
rthumb 30.4714 -24.9263
lclavicle -4.13472e-014 3.97569e-014
lhumerus -26.5123 -6.85171 95.7849
lradius 13.9659
lwrist 10.0692
lhand -9.56654 -7.63686
lfingers 7.12502
lthumb 16.401 21.6897
rfemur -0.372152 -6.55139 22.3052
rtibia 33.5161
rfoot -13.7179 -11.8402
rtoes -12.2768
lfemur 1.34757 10.1148 -16.0753
ltibia 27.726
lfoot -17.2844 10.2473
ltoes 6.30997
